<?xml version="1.0" standalone="no"?>
<!DOCTYPE svg PUBLIC "-//W3C//DTD SVG 20010904//EN"
 "http://www.w3.org/TR/2001/REC-SVG-20010904/DTD/svg10.dtd">
<svg version="1.0" xmlns="http://www.w3.org/2000/svg"
 width="150.000000pt" height="150.000000pt" viewBox="0 0 150.000000 150.000000"
 preserveAspectRatio="xMidYMid meet">
<metadata>
Created by potrace 1.14, written by Peter Selinger 2001-2017
</metadata>
<g transform="translate(0.000000,150.000000) scale(0.100000,-0.100000)"
fill="#000000" stroke="none">
<path d="M728 1244 c-87 -27 -142 -103 -142 -199 0 -75 26 -128 88 -179 25
-20 51 -46 56 -56 10 -18 8 -18 -17 -4 -16 7 -46 14 -68 14 -131 0 -227 97
-212 212 11 82 102 168 179 168 15 0 28 5 28 10 0 19 -66 10 -118 -16 -147
-73 -163 -250 -32 -356 34 -27 63 -35 185 -54 l40 -6 -36 -13 c-20 -7 -55 -25
-78 -40 -110 -73 -254 -21 -287 104 -17 68 0 139 47 187 41 42 33 55 -11 17
-44 -36 -70 -96 -70 -161 0 -68 18 -108 68 -154 77 -69 168 -74 276 -13 69 38
98 46 70 18 -10 -10 -30 -45 -45 -78 -29 -64 -55 -93 -106 -119 -74 -37 -179
-7 -229 66 -24 35 -29 52 -31 111 -1 38 -4 71 -7 74 -2 3 -10 -13 -16 -35 -34
-127 72 -262 204 -262 100 1 162 48 217 165 l34 70 7 -55 c21 -149 21 -165 -1
-208 -57 -111 -199 -136 -296 -51 -18 16 -38 42 -45 59 -12 30 -30 41 -30 18
0 -32 54 -100 103 -128 90 -52 196 -35 264 43 55 62 59 94 37 255 l-6 43 69
-73 c41 -43 75 -90 83 -112 26 -81 -17 -182 -93 -217 -55 -24 -132 -24 -180 0
-47 24 -44 4 4 -24 76 -44 208 -16 262 57 76 102 54 229 -57 321 -47 39 -63
67 -26 47 10 -6 47 -13 82 -17 81 -8 131 -33 164 -82 34 -53 41 -109 20 -165
-22 -57 -83 -113 -133 -121 -59 -10 -72 -19 -34 -23 102 -11 211 96 211 207 0
44 -23 101 -57 140 -37 44 -89 67 -173 76 -56 6 -105 25 -66 25 11 0 47 15 80
34 74 42 120 51 174 37 44 -12 95 -50 114 -84 38 -72 26 -167 -29 -228 -43
-47 -36 -65 8 -23 47 44 69 95 69 159 0 174 -189 269 -340 171 -19 -13 -46
-27 -59 -31 l-24 -7 20 28 c11 16 28 49 37 74 22 57 50 88 101 111 77 36 156
19 212 -44 40 -46 56 -97 51 -158 -3 -27 -1 -49 3 -49 14 0 22 48 17 109 -6
81 -39 130 -113 166 -65 32 -125 31 -193 -4 -49 -25 -75 -57 -115 -141 l-30
-65 -10 65 c-19 120 -15 172 16 219 50 75 148 101 233 62 41 -18 104 -84 104
-108 0 -7 5 -13 10 -13 17 0 11 25 -19 72 -42 66 -120 103 -198 95 -76 -8
-129 -45 -166 -117 -30 -57 -30 -68 -11 -202 l7 -47 -62 60 c-89 88 -112 142
-91 218 30 114 158 171 269 121 54 -25 59 -25 36 0 -18 20 -103 51 -134 49 -9
0 -37 -7 -63 -15z"/>
</g>
</svg>
